<mxfile host="app.diagrams.net" modified="2024-06-25T18:43:52.480Z" agent="Mozilla/5.0 (Windows NT 10.0; Win64; x64) AppleWebKit/537.36 (KHTML, like Gecko) Chrome/126.0.0.0 Safari/537.36" version="24.6.3" etag="lT9se88xNxBbWQ9T5rVZ" type="github">
  <diagram name="PÃ¡gina-1" id="gg7IxHj_v3x3ZHlydUy1">
    <mxGraphModel>
      <root>
        <mxCell id="0" />
        <mxCell id="1" parent="0" />
      </root>
    </mxGraphModel>
  </diagram>
</mxfile>
